<?xml version="1.0" encoding="UTF-8" standalone="no"?>
<!-- Created with Inkscape (http://www.inkscape.org/) -->

<svg
   width="219.99998mm"
   height="60mm"
   viewBox="0 0 219.99998 60"
   version="1.1"
   id="svg1"
   xml:space="preserve"
   xmlns="http://www.w3.org/2000/svg"
   xmlns:svg="http://www.w3.org/2000/svg"><defs
     id="defs1" /><text
     xml:space="preserve"
     style="font-weight:bold;font-size:56.5318px;font-family:Calibri;-inkscape-font-specification:'Calibri, Bold';display:inline;fill:#1114a3;fill-opacity:1;stroke-width:0.99893;stroke-linecap:square;stroke-linejoin:bevel"
     x="4.2148299"
     y="47.859409"
     id="text1"><tspan
       id="tspan1"
       style="fill:#1114a3;fill-opacity:1;stroke-width:0.998932"
       x="4.2148299"
       y="47.859409">ME    IKA</tspan></text><g
     id="layer1"
     transform="matrix(0.87966717,0,0,0.87966717,79.137018,2.079344)"
     style="fill:#1114a3;fill-opacity:1"><g
       id="g5"
       transform="matrix(1.3922685,0,0,1.3922685,-112.71416,13.863203)"
       style="fill:#1114a3;fill-opacity:1"><g
         id="g7"
         transform="translate(-3.718972,-46.929782)"
         style="fill:#1114a3;fill-opacity:1"><path
           style="fill:#1114a3;fill-opacity:1;stroke-width:0.499999;stroke-linecap:square;stroke-linejoin:bevel"
           d="m 96.970093,63.909267 c 0,0 -0.320129,2.653285 1.309948,2.777088 h 4.768199 c 1.465,-0.185705 1.20515,-2.777088 1.20515,-2.777088 z"
           id="path2-0" /><path
           style="fill:#1114a3;fill-opacity:1;stroke-width:0.499999;stroke-linecap:square;stroke-linejoin:bevel"
           d="m 96.988481,40.660756 c 0,0 -0.320129,-2.653285 1.309946,-2.777088 h 4.768203 c 1.465,0.185705 1.20515,2.777088 1.20515,2.777088 z"
           id="path2" /><path
           style="fill:#1114a3;fill-opacity:1;stroke-width:0.499999;stroke-linecap:square;stroke-linejoin:bevel"
           d="m 95.663862,40.55596 h 9.581148 c 1.21315,0 1.48337,-0.0875 1.48954,1.309947 l -6e-5,20.539971 c 0,1.168211 0.0808,1.710672 -2.46271,1.676731 l -7.283299,0.0524 c -2.9139,-0.0068 -2.754623,-0.268865 -2.777088,-1.729129 l 0.0224,-20.749561 c 0.01465,-1.147684 0.598842,-1.100359 1.430069,-1.100359 z"
           id="path1" /><path
           style="fill:#1114a3;fill-opacity:1;stroke-width:0.499999;stroke-linecap:square;stroke-linejoin:bevel"
           d="m 92.03443,69.544535 h 16.78406 c 0.91919,0.01459 0.93378,2.371257 0,2.371257 H 92.03443 c -0.831649,0 -0.86083,-2.385847 0,-2.371257 z"
           id="path4" /><path
           style="fill:#1114a3;fill-opacity:1;stroke-width:0.499999;stroke-linecap:square;stroke-linejoin:bevel"
           d="m 110.48578,49.942955 c 15.12974,0.918162 12.70152,20.494799 3.09342,23.548997 H 86.625 c -1.495955,-0.01032 -1.429853,5.574665 0,5.574665 l 38.16712,0.08986 c 1.48564,-0.02063 1.30774,-5.721082 -0.15726,-5.741716 l -1.84079,0.02246 c 8.54939,-12.034852 3.55558,-27.84599 -12.35636,-29.96479 z"
           id="path5" /><rect
           style="fill:#ffffff;fill-opacity:1;stroke-width:0.222245;stroke-linecap:square;stroke-linejoin:bevel"
           id="rect7"
           width="12.490875"
           height="0.89862406"
           x="94.217079"
           y="61.543411" /><rect
           style="fill:#ffffff;fill-opacity:1;stroke-width:0.222245;stroke-linecap:square;stroke-linejoin:bevel"
           id="rect7-62"
           width="12.490875"
           height="0.89862406"
           x="94.265152"
           y="41.523399" /><rect
           style="fill:#ffffff;fill-opacity:1;stroke-width:0.337051;stroke-linecap:square;stroke-linejoin:bevel"
           id="rect7-6"
           width="12.490875"
           height="2.0668354"
           x="94.200226"
           y="58.757526" /></g></g></g></svg>
