<?xml version="1.0" encoding="UTF-8" standalone="no"?>
<!-- Created with Inkscape (http://www.inkscape.org/) -->

<svg
   width="60mm"
   height="60mm"
   viewBox="0 0 60 60"
   version="1.1"
   id="svg1"
   xml:space="preserve"
   sodipodi:docname="medikablue.svg"
   inkscape:export-filename="..\..\..\..\Users\colee\OneDrive\Desktop\website\medika-react\public\medika_logo.svg"
   inkscape:export-xdpi="96"
   inkscape:export-ydpi="96"
   inkscape:version="1.3.2 (091e20e, 2023-11-25, custom)"
   xmlns:inkscape="http://www.inkscape.org/namespaces/inkscape"
   xmlns:sodipodi="http://sodipodi.sourceforge.net/DTD/sodipodi-0.dtd"
   xmlns="http://www.w3.org/2000/svg"
   xmlns:svg="http://www.w3.org/2000/svg"><sodipodi:namedview
     id="namedview1"
     pagecolor="#ffffff"
     bordercolor="#000000"
     borderopacity="0.25"
     inkscape:showpageshadow="2"
     inkscape:pageopacity="0.0"
     inkscape:pagecheckerboard="0"
     inkscape:deskcolor="#d1d1d1"
     inkscape:document-units="mm"
     inkscape:zoom="0.68662602"
     inkscape:cx="200.98277"
     inkscape:cy="131.80392"
     inkscape:window-width="1360"
     inkscape:window-height="697"
     inkscape:window-x="-8"
     inkscape:window-y="-8"
     inkscape:window-maximized="1"
     inkscape:current-layer="layer1" /><defs
     id="defs1" /><g
     id="layer1"><g
       id="g5"
       transform="matrix(1.3922685,0,0,1.3922685,-112.71416,13.863203)"><g
         id="g7"
         transform="translate(-3.718972,-46.929782)"><text
           xml:space="preserve"
           style="font-weight:bold;font-size:52.7408px;font-family:Calibri;-inkscape-font-specification:'Calibri, Bold';display:none;fill:#1114a3;fill-opacity:1;stroke-width:0.931943;stroke-linecap:square;stroke-linejoin:bevel"
           x="2.6776626"
           y="121.66177"
           id="text1"
           transform="matrix(0.76987937,0,0,0.76987937,25.527577,-15.355487)"><tspan
             id="tspan1"
             style="fill:#1114a3;fill-opacity:1;stroke-width:0.931945"
             x="2.6776626"
             y="121.66177">ME     IKA</tspan></text><path
           style="fill:#1114a3;fill-opacity:1;stroke-width:0.499999;stroke-linecap:square;stroke-linejoin:bevel"
           d="m 96.970093,63.909267 c 0,0 -0.320129,2.653285 1.309948,2.777088 h 4.768199 c 1.465,-0.185705 1.20515,-2.777088 1.20515,-2.777088 z"
           id="path2-0" /><path
           style="fill:#1114a3;fill-opacity:1;stroke-width:0.499999;stroke-linecap:square;stroke-linejoin:bevel"
           d="m 96.988481,40.660756 c 0,0 -0.320129,-2.653285 1.309946,-2.777088 h 4.768203 c 1.465,0.185705 1.20515,2.777088 1.20515,2.777088 z"
           id="path2" /><path
           style="fill:#cccccc;fill-opacity:1;stroke-width:0.499999;stroke-linecap:square;stroke-linejoin:bevel"
           d="m 95.663862,40.55596 h 9.581148 c 1.21315,0 1.48337,-0.0875 1.48954,1.309947 l -6e-5,20.539971 c 0,1.168211 0.0808,1.710672 -2.46271,1.676731 l -7.283299,0.0524 c -2.9139,-0.0068 -2.754623,-0.268865 -2.777088,-1.729129 l 0.0224,-20.749561 c 0.01465,-1.147684 0.598842,-1.100359 1.430069,-1.100359 z"
           id="path1" /><path
           style="fill:#1114a3;fill-opacity:1;stroke-width:0.499999;stroke-linecap:square;stroke-linejoin:bevel"
           d="m 92.03443,69.544535 h 16.78406 c 0.91919,0.01459 0.93378,2.371257 0,2.371257 H 92.03443 c -0.831649,0 -0.86083,-2.385847 0,-2.371257 z"
           id="path4" /><path
           style="fill:#1114a3;fill-opacity:1;stroke-width:0.499999;stroke-linecap:square;stroke-linejoin:bevel"
           d="m 110.48578,49.942955 c 15.12974,0.918162 12.70152,20.494799 3.09342,23.548997 H 86.625 c -1.495955,-0.01032 -1.429853,5.574665 0,5.574665 l 38.16712,0.08986 c 1.48564,-0.02063 1.30774,-5.721082 -0.15726,-5.741716 l -1.84079,0.02246 c 8.54939,-12.034852 3.55558,-27.84599 -12.35636,-29.96479 z"
           id="path5" /><rect
           style="fill:#1114a3;fill-opacity:1;stroke-width:0.222245;stroke-linecap:square;stroke-linejoin:bevel"
           id="rect7"
           width="12.490875"
           height="0.89862406"
           x="94.217079"
           y="61.543411" /><rect
           style="fill:#1114a3;fill-opacity:1;stroke-width:0.222245;stroke-linecap:square;stroke-linejoin:bevel"
           id="rect7-62"
           width="12.490875"
           height="0.89862406"
           x="94.265152"
           y="41.523399" /><rect
           style="fill:#1114a3;fill-opacity:1;stroke-width:0.337051;stroke-linecap:square;stroke-linejoin:bevel"
           id="rect7-6"
           width="12.490875"
           height="2.0668354"
           x="94.200226"
           y="58.757526" /></g></g></g></svg>
